<?xml version="1.0" encoding="iso-8859-1"?>
<!-- Generator: Adobe Illustrator 18.0.0, SVG Export Plug-In . SVG Version: 6.00 Build 0)  -->
<!DOCTYPE svg PUBLIC "-//W3C//DTD SVG 1.1//EN" "http://www.w3.org/Graphics/SVG/1.1/DTD/svg11.dtd">
<svg version="1.1" id="Capa_1" xmlns="http://www.w3.org/2000/svg" xmlns:xlink="http://www.w3.org/1999/xlink" x="0px" y="0px"
	 viewBox="0 0 150.449 150.449" style="enable-background:new 0 0 150.449 150.449;" xml:space="preserve">
<g>
	<rect x="14.225" y="26.349" style="fill-rule:evenodd;clip-rule:evenodd;fill:#FFD873;" width="121.987" height="103.124"/>
	<rect x="14.225" y="92.485" style="fill-rule:evenodd;clip-rule:evenodd;fill:#EDC256;" width="121.987" height="36.988"/>
	<rect x="90.682" y="68.539" style="fill-rule:evenodd;clip-rule:evenodd;fill:#47C796;" width="36.449" height="60.935"/>
	<rect x="93.401" y="70.828" style="fill-rule:evenodd;clip-rule:evenodd;fill:#9FECFF;" width="31.01" height="58.645"/>
	<g>
		<polygon style="fill-rule:evenodd;clip-rule:evenodd;fill:#DEF8FF;" points="93.401,109.266 124.411,78.958 124.411,75.831 
			93.401,106.139 		"/>
		<polygon style="fill-rule:evenodd;clip-rule:evenodd;fill:#DEF8FF;" points="93.401,118.647 124.411,88.337 124.411,82.084 
			93.401,112.393 		"/>
		<polygon style="fill-rule:evenodd;clip-rule:evenodd;fill:#DEF8FF;" points="93.401,124.901 124.411,94.591 124.411,91.464 
			93.401,121.774 		"/>
	</g>
	<polygon style="fill-rule:evenodd;clip-rule:evenodd;fill:#DB86B3;" points="14.225,18.765 136.212,18.765 144.77,52.257 
		5.665,52.257 	"/>
	<polygon style="fill-rule:evenodd;clip-rule:evenodd;fill:#4C6308;" points="134.791,129.473 137.198,129.473 135.912,92.239 	"/>
	<polygon style="fill-rule:evenodd;clip-rule:evenodd;fill:#DB86B3;" points="129.729,131.684 142.698,131.684 144.192,120.664 
		128.234,120.664 	"/>
	<path style="fill:#ED9FC9;" d="M138.108,25.67l0.527,2.064c-1.495-0.405-2.833-1.212-3.895-2.303
		c-0.657-0.676-1.208-1.46-1.626-2.325v-3.898h0.887c0,1.952,0.768,3.717,2.007,4.991C136.608,24.816,137.32,25.317,138.108,25.67
		L138.108,25.67z M133.115,34.181c1.884,0,3.589-0.784,4.823-2.053c0.541-0.556,0.992-1.205,1.329-1.923l0.608,2.382
		c-0.208,0.271-0.432,0.53-0.67,0.774c-1.352,1.39-3.151,2.318-5.156,2.541c0.185,1.617,0.899,3.066,1.959,4.156
		c1.234,1.268,2.939,2.052,4.823,2.052c0.493,0,0.975-0.054,1.438-0.156l0.439,1.719c-0.308,0.07-0.622,0.124-0.942,0.159
		c0.186,1.617,0.899,3.066,1.96,4.155c0.038,0.039,0.076,0.079,0.115,0.117l0.686,2.688c-0.765-0.416-1.463-0.947-2.069-1.57
		c-0.657-0.677-1.209-1.461-1.626-2.326c-0.418,0.865-0.969,1.649-1.627,2.325c-1.559,1.603-3.712,2.593-6.091,2.593v-1.773
		c1.884,0,3.589-0.784,4.823-2.053c1.061-1.089,1.775-2.538,1.96-4.155c-2.005-0.222-3.805-1.151-5.157-2.541
		c-0.657-0.676-1.208-1.46-1.626-2.324V34.181z M133.115,23.107c-0.417,0.865-0.969,1.649-1.626,2.325
		c-0.65,0.668-1.403,1.229-2.232,1.657v-2.065c0.346-0.244,0.669-0.52,0.965-0.824c1.24-1.274,2.007-3.04,2.007-4.991h0.887V23.107
		L133.115,23.107z M129.257,32.953c1.097,0.774,2.426,1.228,3.858,1.228v4.786c-0.417,0.863-0.969,1.648-1.626,2.324
		c-0.65,0.668-1.403,1.229-2.232,1.656v-2.064c0.346-0.245,0.669-0.521,0.965-0.825c1.061-1.089,1.775-2.538,1.959-4.155
		c-1.041-0.115-2.027-0.422-2.924-0.885V32.953L129.257,32.953z M133.115,51.814c-1.387,0-2.698-0.337-3.858-0.936v-2.065
		c1.097,0.774,2.426,1.228,3.858,1.228V51.814z M129.257,27.089c-0.896,0.462-1.883,0.769-2.925,0.884
		c0.185,1.618,0.899,3.065,1.96,4.155c0.296,0.304,0.619,0.58,0.965,0.824v2.065c-0.83-0.428-1.582-0.988-2.232-1.656
		c-0.657-0.676-1.209-1.461-1.626-2.325l0,0v-4.785l0,0c1.432,0,2.761-0.453,3.858-1.228V27.089L129.257,27.089z M129.257,50.878
		c-0.83-0.428-1.582-0.989-2.232-1.657c-0.657-0.676-1.209-1.461-1.626-2.325v0.001v-4.786l0,0c1.432,0,2.761-0.453,3.858-1.227
		v2.064c-0.896,0.463-1.883,0.77-2.925,0.885c0.185,1.617,0.899,3.066,1.96,4.155c0.296,0.305,0.619,0.58,0.965,0.825V50.878z
		 M125.398,46.897c-0.418,0.864-0.97,1.649-1.627,2.324c-0.649,0.668-1.402,1.229-2.231,1.657v-2.065
		c0.346-0.244,0.668-0.521,0.964-0.825c1.062-1.089,1.775-2.538,1.961-4.155c-1.042-0.115-2.028-0.422-2.925-0.885v-2.065
		c1.097,0.775,2.426,1.228,3.858,1.228V46.897L125.398,46.897z M121.54,25.023c1.097,0.774,2.426,1.229,3.858,1.229v4.785
		c-0.418,0.864-0.97,1.649-1.627,2.325c-0.649,0.668-1.402,1.229-2.231,1.657v-2.066c0.346-0.244,0.668-0.521,0.964-0.824
		c1.062-1.09,1.775-2.537,1.961-4.155c-1.042-0.115-2.028-0.422-2.925-0.885V25.023z M121.54,50.878
		c-1.161,0.599-2.472,0.936-3.859,0.936v-1.773c1.433,0,2.762-0.453,3.859-1.228V50.878L121.54,50.878z M117.681,19.209h0.887
		c0,1.951,0.768,3.717,2.008,4.991c0.296,0.304,0.618,0.58,0.965,0.823v2.065c-0.83-0.428-1.583-0.988-2.232-1.656
		c-0.658-0.676-1.209-1.461-1.627-2.325V19.209L117.681,19.209z M121.54,32.953v2.066c-0.897,0.462-1.883,0.769-2.925,0.884
		c0.185,1.617,0.899,3.066,1.96,4.155c0.296,0.304,0.618,0.58,0.965,0.824v2.065c-0.83-0.428-1.583-0.989-2.232-1.656
		c-0.658-0.676-1.209-1.461-1.627-2.325v-4.785C119.113,34.181,120.442,33.728,121.54,32.953z M117.681,51.814
		c-1.387,0-2.697-0.337-3.858-0.936v-2.066c1.098,0.775,2.427,1.229,3.858,1.229V51.814L117.681,51.814z M113.822,25.024
		c0.347-0.244,0.669-0.52,0.965-0.824c1.24-1.274,2.007-3.04,2.007-4.991h0.887v3.898c-0.417,0.864-0.969,1.649-1.627,2.325
		c-0.648,0.668-1.401,1.229-2.231,1.657V25.024L113.822,25.024z M117.681,34.181v4.785c-0.417,0.864-0.969,1.649-1.627,2.325
		c-0.648,0.668-1.401,1.229-2.231,1.656v-2.064c0.347-0.245,0.669-0.521,0.965-0.825c1.061-1.089,1.775-2.538,1.96-4.155
		c-1.042-0.115-2.028-0.422-2.925-0.885v-2.065C114.92,33.727,116.249,34.181,117.681,34.181z M113.822,50.878
		c-0.829-0.428-1.582-0.989-2.231-1.657c-0.658-0.676-1.21-1.46-1.627-2.325v0.001v-4.786l0,0c1.433,0,2.761-0.453,3.858-1.227
		v2.064c-0.896,0.463-1.883,0.77-2.925,0.885c0.186,1.617,0.9,3.066,1.961,4.155c0.295,0.305,0.618,0.58,0.964,0.824V50.878
		L113.822,50.878z M109.964,26.251L109.964,26.251c1.433,0,2.761-0.453,3.858-1.228v2.065c-0.896,0.462-1.883,0.769-2.925,0.884
		c0.186,1.618,0.9,3.065,1.961,4.155c0.295,0.304,0.618,0.58,0.964,0.824v2.065c-0.829-0.428-1.582-0.988-2.231-1.656
		c-0.658-0.676-1.21-1.461-1.627-2.325v0.001V26.251z M109.964,46.897c-0.417,0.864-0.969,1.649-1.626,2.324
		c-0.65,0.668-1.403,1.229-2.232,1.657v-2.065c0.346-0.244,0.669-0.521,0.965-0.825c1.061-1.089,1.774-2.538,1.959-4.155
		c-1.041-0.115-2.027-0.422-2.924-0.885v-2.065c1.097,0.775,2.427,1.228,3.858,1.228V46.897L109.964,46.897z M106.105,25.023
		c1.097,0.774,2.427,1.229,3.858,1.229v4.786c-0.417,0.863-0.969,1.648-1.626,2.324c-0.65,0.668-1.403,1.229-2.232,1.657v-2.066
		c0.346-0.244,0.669-0.521,0.965-0.824c1.061-1.09,1.774-2.537,1.959-4.155c-1.041-0.115-2.027-0.422-2.924-0.884V25.023z
		 M106.105,50.878c-1.161,0.599-2.472,0.936-3.858,0.936v-1.773c1.432,0,2.761-0.453,3.858-1.228V50.878L106.105,50.878z
		 M102.247,19.209h0.887c0,1.951,0.768,3.717,2.007,4.991c0.296,0.304,0.618,0.58,0.965,0.823v2.066
		c-0.829-0.428-1.583-0.989-2.232-1.657c-0.657-0.676-1.209-1.46-1.626-2.325V19.209L102.247,19.209z M106.105,32.953v2.066
		c-0.896,0.462-1.883,0.769-2.925,0.884c0.185,1.617,0.899,3.066,1.96,4.155c0.296,0.304,0.618,0.58,0.965,0.824v2.065
		c-0.829-0.427-1.583-0.988-2.232-1.656c-0.657-0.676-1.209-1.461-1.626-2.324v-4.786C103.679,34.181,105.008,33.728,106.105,32.953
		z M102.247,51.814c-1.388,0-2.698-0.337-3.859-0.936v-2.065c1.098,0.774,2.427,1.228,3.859,1.228V51.814L102.247,51.814z
		 M98.388,25.024c0.347-0.244,0.669-0.52,0.965-0.824c1.24-1.274,2.007-3.04,2.007-4.991h0.888v3.898
		c-0.418,0.865-0.969,1.649-1.627,2.325c-0.649,0.668-1.402,1.23-2.232,1.657V25.024L98.388,25.024z M102.247,34.181v4.786
		c-0.418,0.863-0.969,1.648-1.627,2.324c-0.649,0.668-1.402,1.229-2.232,1.657v-2.065c0.347-0.245,0.669-0.521,0.965-0.825
		c1.061-1.089,1.775-2.538,1.96-4.155c-1.042-0.115-2.027-0.422-2.925-0.885v-2.065C99.485,33.728,100.814,34.181,102.247,34.181z
		 M98.388,50.878c-0.829-0.428-1.582-0.989-2.231-1.656c-0.658-0.677-1.209-1.461-1.627-2.326v-4.785
		c1.433,0,2.762-0.453,3.858-1.227v2.065c-0.896,0.462-1.883,0.769-2.924,0.884c0.185,1.617,0.899,3.066,1.959,4.155
		c0.297,0.305,0.619,0.581,0.965,0.825V50.878L98.388,50.878z M94.529,26.251c1.433,0,2.762-0.453,3.858-1.228v2.065
		c-0.896,0.462-1.883,0.769-2.924,0.884c0.185,1.618,0.899,3.065,1.959,4.155c0.297,0.304,0.619,0.58,0.965,0.824v2.065
		c-0.829-0.428-1.582-0.988-2.231-1.655c-0.658-0.677-1.209-1.462-1.627-2.326V26.251z M94.529,46.896
		c-0.417,0.864-0.968,1.649-1.626,2.325c-0.65,0.668-1.403,1.229-2.232,1.657v-2.065c0.346-0.244,0.669-0.521,0.965-0.825
		c1.061-1.089,1.775-2.538,1.96-4.155c-1.042-0.115-2.028-0.422-2.925-0.885v-2.065c1.097,0.774,2.427,1.228,3.858,1.228V46.896
		L94.529,46.896z M90.671,25.023c1.097,0.774,2.427,1.229,3.858,1.229v4.785c-0.417,0.864-0.968,1.649-1.626,2.325
		c-0.65,0.668-1.402,1.229-2.232,1.657v-2.066c0.346-0.244,0.669-0.521,0.965-0.824c1.061-1.09,1.775-2.537,1.96-4.155
		c-1.042-0.115-2.028-0.422-2.925-0.885V25.023z M90.671,50.878c-1.161,0.599-2.472,0.936-3.858,0.936l0,0v-1.773l0,0
		c1.433,0,2.761-0.453,3.858-1.228V50.878L90.671,50.878z M86.812,19.209h0.887c0,1.952,0.768,3.717,2.007,4.991
		c0.296,0.304,0.619,0.58,0.965,0.823v2.065c-0.829-0.428-1.582-0.988-2.232-1.656c-0.657-0.676-1.209-1.46-1.626-2.325v0.001
		V19.209L86.812,19.209z M90.671,32.953v2.066c-0.896,0.462-1.883,0.769-2.925,0.884c0.185,1.617,0.899,3.066,1.96,4.156
		c0.296,0.304,0.619,0.579,0.965,0.823v2.065c-0.829-0.428-1.582-0.989-2.232-1.656c-0.657-0.676-1.209-1.461-1.626-2.324l0,0
		v-4.786l0,0C88.245,34.181,89.573,33.728,90.671,32.953z M86.812,51.814c-1.388,0-2.698-0.337-3.858-0.936v-2.065
		c1.097,0.774,2.426,1.228,3.858,1.228V51.814L86.812,51.814z M82.954,25.024c0.346-0.244,0.669-0.52,0.965-0.824
		c1.239-1.274,2.007-3.04,2.007-4.991h0.887v3.899c-0.417,0.863-0.969,1.648-1.627,2.324c-0.649,0.668-1.402,1.23-2.231,1.657
		V25.024L82.954,25.024z M86.812,34.181v4.786c-0.417,0.864-0.969,1.648-1.627,2.324c-0.649,0.668-1.402,1.229-2.231,1.656v-2.064
		c0.346-0.245,0.669-0.521,0.965-0.825c1.061-1.089,1.775-2.538,1.959-4.155c-1.042-0.115-2.027-0.422-2.924-0.885v-2.065
		C84.051,33.727,85.38,34.181,86.812,34.181z M82.954,50.878c-0.83-0.428-1.582-0.989-2.232-1.656
		c-0.658-0.677-1.21-1.461-1.627-2.326l-0.001,0.002v-4.787h0.001c1.432,0,2.761-0.453,3.858-1.227v2.064
		c-0.896,0.463-1.883,0.77-2.925,0.885c0.186,1.618,0.899,3.066,1.96,4.155c0.296,0.305,0.619,0.58,0.965,0.825V50.878
		L82.954,50.878z M79.095,26.251L79.095,26.251c1.433,0,2.762-0.453,3.859-1.228v2.065c-0.896,0.462-1.883,0.769-2.925,0.884
		c0.186,1.618,0.899,3.065,1.96,4.155c0.296,0.304,0.619,0.58,0.965,0.824v2.065c-0.83-0.428-1.582-0.988-2.232-1.655
		c-0.658-0.677-1.21-1.462-1.627-2.326l-0.001,0.002V26.251z M79.095,46.898c-0.417,0.864-0.968,1.648-1.626,2.324
		c-0.649,0.667-1.402,1.229-2.231,1.656v-2.065c0.346-0.244,0.669-0.521,0.965-0.825c1.061-1.089,1.774-2.537,1.96-4.155
		c-1.042-0.115-2.028-0.422-2.925-0.885v-2.064c1.097,0.774,2.426,1.227,3.857,1.227V46.898L79.095,46.898z M75.237,25.024
		c1.097,0.774,2.426,1.228,3.857,1.228v4.787c-0.417,0.863-0.968,1.649-1.626,2.324c-0.649,0.667-1.402,1.229-2.231,1.656v-2.066
		c0.346-0.244,0.669-0.521,0.965-0.824c1.061-1.09,1.774-2.537,1.96-4.155c-1.042-0.115-2.028-0.422-2.925-0.884V25.024z
		 M75.237,50.878c-1.161,0.599-2.472,0.936-3.858,0.936l0,0v-1.773l0,0c1.433,0,2.761-0.453,3.858-1.228V50.878L75.237,50.878z
		 M71.379,19.209h0.886c0,1.952,0.768,3.717,2.008,4.991c0.296,0.304,0.618,0.58,0.965,0.824v2.065
		c-0.83-0.428-1.583-0.989-2.232-1.657c-0.658-0.676-1.209-1.46-1.626-2.325v0.001V19.209L71.379,19.209z M75.237,32.953v2.066
		c-0.897,0.462-1.883,0.769-2.925,0.884c0.185,1.617,0.899,3.066,1.96,4.156c0.296,0.304,0.618,0.58,0.965,0.824v2.064
		c-0.83-0.428-1.583-0.988-2.232-1.656c-0.658-0.676-1.209-1.46-1.626-2.324l0,0v-4.786l0,0
		C72.811,34.181,74.14,33.728,75.237,32.953z M71.379,51.814c-1.388,0-2.698-0.337-3.858-0.936v-2.066
		c1.097,0.775,2.426,1.229,3.858,1.229V51.814L71.379,51.814z M67.52,25.024c0.346-0.244,0.668-0.52,0.964-0.824
		c1.24-1.274,2.008-3.039,2.008-4.991h0.887v3.899c-0.418,0.864-0.97,1.648-1.627,2.324c-0.649,0.668-1.402,1.23-2.231,1.657V25.024
		L67.52,25.024z M71.379,34.181v4.786c-0.418,0.864-0.97,1.649-1.627,2.324c-0.649,0.668-1.402,1.229-2.231,1.656v-2.064
		c0.346-0.244,0.668-0.521,0.964-0.824c1.061-1.09,1.775-2.539,1.96-4.156c-1.041-0.115-2.027-0.422-2.924-0.885v-2.065
		C68.617,33.727,69.946,34.181,71.379,34.181z M67.52,50.878c-0.83-0.428-1.582-0.989-2.232-1.657
		c-0.658-0.676-1.209-1.461-1.626-2.325l-0.001,0.001v-4.786h0.001c1.432,0,2.761-0.453,3.858-1.227v2.064
		c-0.897,0.463-1.883,0.77-2.925,0.885c0.185,1.617,0.899,3.066,1.96,4.155c0.296,0.305,0.619,0.58,0.965,0.824V50.878L67.52,50.878
		z M63.661,26.251L63.661,26.251c1.433,0,2.762-0.453,3.859-1.228v2.065c-0.897,0.462-1.883,0.769-2.925,0.884
		c0.185,1.618,0.899,3.065,1.96,4.155c0.296,0.304,0.619,0.58,0.965,0.824v2.065c-0.83-0.428-1.582-0.988-2.232-1.656
		c-0.658-0.676-1.209-1.461-1.626-2.325l-0.001,0.001V26.251z M63.661,46.897c-0.417,0.864-0.969,1.649-1.626,2.325
		c-0.649,0.667-1.402,1.229-2.232,1.656v-2.065c0.347-0.244,0.669-0.521,0.965-0.825c1.062-1.089,1.775-2.538,1.96-4.155
		c-1.041-0.115-2.027-0.422-2.925-0.885v-2.065c1.098,0.775,2.427,1.228,3.858,1.228V46.897L63.661,46.897z M59.803,25.023
		c1.098,0.774,2.427,1.229,3.858,1.229v4.786c-0.417,0.863-0.969,1.648-1.626,2.325c-0.649,0.667-1.402,1.229-2.232,1.656v-2.066
		c0.347-0.244,0.669-0.52,0.965-0.824c1.062-1.09,1.775-2.537,1.96-4.155c-1.041-0.115-2.027-0.422-2.925-0.884V25.023z
		 M59.803,50.878c-1.16,0.599-2.471,0.936-3.858,0.936v-1.773c1.432,0,2.762-0.453,3.858-1.228V50.878L59.803,50.878z
		 M55.944,19.209h0.887c0,1.951,0.768,3.717,2.008,4.991c0.295,0.304,0.618,0.58,0.964,0.823v2.066
		c-0.829-0.428-1.582-0.989-2.231-1.657c-0.658-0.676-1.21-1.461-1.627-2.325V19.209L55.944,19.209z M59.803,32.953v2.066
		c-0.896,0.462-1.883,0.769-2.924,0.884c0.185,1.617,0.899,3.066,1.96,4.155c0.295,0.304,0.618,0.58,0.964,0.824v2.065
		c-0.829-0.427-1.582-0.988-2.231-1.656c-0.658-0.676-1.21-1.461-1.627-2.324v-4.786C57.376,34.181,58.706,33.727,59.803,32.953z
		 M55.944,51.814c-1.387,0-2.697-0.337-3.858-0.936v-2.065c1.098,0.774,2.427,1.228,3.858,1.228V51.814L55.944,51.814z
		 M52.086,25.023c0.346-0.243,0.669-0.519,0.965-0.823c1.24-1.274,2.007-3.039,2.007-4.991h0.887v3.898
		c-0.417,0.865-0.969,1.649-1.627,2.325c-0.648,0.668-1.401,1.23-2.231,1.657V25.023L52.086,25.023z M55.944,34.181v4.786
		c-0.417,0.863-0.969,1.648-1.627,2.324c-0.648,0.668-1.401,1.229-2.231,1.656v-2.065c0.346-0.244,0.669-0.52,0.965-0.823
		c1.06-1.09,1.774-2.539,1.96-4.156c-1.042-0.115-2.028-0.422-2.925-0.885v-2.065C53.184,33.728,54.513,34.181,55.944,34.181z
		 M52.086,50.878c-0.829-0.428-1.582-0.989-2.232-1.657c-0.657-0.676-1.209-1.46-1.626-2.325v0.001v-4.786l0,0
		c1.433,0,2.761-0.454,3.858-1.228v2.065c-0.896,0.463-1.883,0.77-2.925,0.885c0.186,1.617,0.899,3.066,1.96,4.155
		c0.296,0.305,0.619,0.581,0.965,0.825V50.878L52.086,50.878z M48.227,26.251L48.227,26.251c1.433,0,2.761-0.454,3.858-1.229v2.066
		c-0.896,0.462-1.883,0.769-2.925,0.884c0.186,1.618,0.899,3.065,1.96,4.155c0.296,0.304,0.619,0.58,0.965,0.824v2.065
		c-0.829-0.428-1.583-0.988-2.232-1.656c-0.657-0.676-1.209-1.461-1.626-2.325v0.001V26.251z M48.227,46.897
		c-0.418,0.864-0.97,1.649-1.626,2.324c-0.65,0.668-1.403,1.229-2.233,1.657v-2.065c0.347-0.245,0.67-0.521,0.965-0.825
		c1.06-1.089,1.775-2.538,1.961-4.155c-1.042-0.115-2.028-0.422-2.926-0.885v-2.065c1.098,0.775,2.427,1.228,3.859,1.228V46.897
		L48.227,46.897z M44.368,25.023c1.098,0.774,2.427,1.229,3.859,1.229v4.786c-0.418,0.863-0.97,1.648-1.626,2.324
		c-0.65,0.668-1.403,1.229-2.233,1.657v-2.066c0.347-0.244,0.67-0.521,0.965-0.824c1.06-1.09,1.775-2.537,1.961-4.155
		c-1.042-0.115-2.028-0.422-2.926-0.884V25.023z M44.368,50.878c-1.16,0.599-2.471,0.936-3.857,0.936v-1.773
		c1.432,0,2.761-0.453,3.857-1.228V50.878L44.368,50.878z M40.511,19.209h0.887c0,1.951,0.767,3.717,2.007,4.991
		c0.296,0.304,0.618,0.58,0.964,0.823v2.066c-0.829-0.428-1.582-0.989-2.231-1.657c-0.658-0.676-1.209-1.46-1.626-2.325V19.209
		L40.511,19.209z M44.368,32.953v2.066c-0.896,0.462-1.883,0.769-2.924,0.884c0.185,1.617,0.899,3.066,1.96,4.155
		c0.296,0.304,0.618,0.58,0.964,0.824v2.065c-0.829-0.427-1.582-0.988-2.231-1.656c-0.658-0.676-1.209-1.461-1.626-2.324v-4.786
		C41.942,34.181,43.271,33.727,44.368,32.953z M40.511,51.814c-1.388,0-2.698-0.337-3.859-0.936v-2.065
		c1.098,0.774,2.427,1.228,3.859,1.228V51.814L40.511,51.814z M36.651,25.023c0.346-0.243,0.669-0.519,0.965-0.823
		c1.24-1.274,2.007-3.04,2.007-4.991h0.888v3.898c-0.418,0.865-0.969,1.649-1.627,2.325c-0.65,0.668-1.402,1.229-2.233,1.657V25.023
		L36.651,25.023z M40.511,34.181v4.786c-0.418,0.863-0.969,1.648-1.627,2.324c-0.65,0.668-1.402,1.229-2.233,1.656v-2.065
		c0.346-0.244,0.669-0.521,0.965-0.824c1.061-1.089,1.775-2.538,1.96-4.155c-1.042-0.115-2.028-0.422-2.925-0.884v-2.066
		C37.749,33.727,39.078,34.181,40.511,34.181z M36.651,50.878c-0.829-0.429-1.582-0.989-2.231-1.657
		c-0.658-0.675-1.209-1.46-1.627-2.324v-4.786c1.433,0,2.762-0.453,3.858-1.228v2.065c-0.896,0.463-1.883,0.77-2.924,0.885
		c0.185,1.617,0.899,3.066,1.959,4.155c0.297,0.305,0.619,0.58,0.965,0.825V50.878L36.651,50.878z M32.793,26.251
		c1.433,0,2.762-0.454,3.858-1.229v2.066c-0.896,0.462-1.883,0.769-2.924,0.884c0.185,1.618,0.899,3.065,1.959,4.155
		c0.297,0.304,0.619,0.58,0.965,0.824v2.066c-0.829-0.428-1.582-0.989-2.231-1.657c-0.658-0.676-1.209-1.461-1.627-2.325V26.251z
		 M32.793,46.897L32.793,46.897c-0.417,0.863-0.969,1.648-1.626,2.324c-0.65,0.668-1.403,1.229-2.233,1.657v-2.065
		c0.346-0.245,0.668-0.521,0.964-0.825c1.062-1.089,1.776-2.538,1.961-4.155c-1.042-0.115-2.028-0.422-2.925-0.885v-2.065
		c1.097,0.775,2.426,1.228,3.858,1.228l0,0V46.897L32.793,46.897z M28.934,25.023c1.097,0.774,2.426,1.229,3.858,1.229l0,0v4.785
		l0,0c-0.417,0.864-0.969,1.649-1.626,2.325c-0.65,0.668-1.403,1.229-2.233,1.657v-2.066c0.346-0.244,0.668-0.521,0.964-0.824
		c1.062-1.09,1.776-2.537,1.961-4.155c-1.042-0.115-2.028-0.422-2.925-0.884V25.023z M28.934,50.878
		c-1.161,0.599-2.472,0.936-3.858,0.936v-1.773c1.432,0,2.762-0.453,3.858-1.228V50.878L28.934,50.878z M25.076,19.209h0.887
		c0,1.951,0.767,3.717,2.007,4.991c0.296,0.304,0.619,0.58,0.965,0.823v2.066c-0.829-0.428-1.582-0.989-2.232-1.657
		c-0.657-0.676-1.209-1.461-1.626-2.325V19.209L25.076,19.209z M28.934,32.953v2.066c-0.896,0.462-1.883,0.769-2.925,0.884
		c0.185,1.617,0.899,3.066,1.96,4.155c0.296,0.304,0.619,0.58,0.965,0.824v2.065c-0.829-0.427-1.582-0.988-2.232-1.656
		c-0.657-0.676-1.209-1.461-1.626-2.325v-4.785C26.508,34.181,27.838,33.727,28.934,32.953z M25.076,51.814
		c-1.388,0-2.698-0.337-3.859-0.936v-2.065c1.098,0.774,2.427,1.228,3.859,1.228V51.814L25.076,51.814z M21.217,25.024
		c0.347-0.244,0.669-0.52,0.965-0.824c1.24-1.274,2.008-3.04,2.008-4.991h0.887v3.898c-0.418,0.864-0.97,1.649-1.627,2.325
		c-0.649,0.668-1.402,1.229-2.232,1.657V25.024L21.217,25.024z M25.076,34.181v4.785c-0.418,0.864-0.97,1.649-1.627,2.325
		c-0.649,0.668-1.402,1.229-2.232,1.656v-2.064c0.347-0.245,0.669-0.521,0.965-0.825c1.061-1.089,1.775-2.538,1.96-4.155
		c-1.042-0.115-2.027-0.422-2.925-0.885v-2.065C22.314,33.727,23.643,34.181,25.076,34.181z M21.217,50.878
		c-0.829-0.428-1.582-0.989-2.232-1.657c-0.658-0.676-1.209-1.46-1.627-2.325v-4.785c1.433,0,2.762-0.453,3.858-1.227v2.064
		c-0.897,0.463-1.882,0.77-2.924,0.885c0.185,1.617,0.899,3.066,1.96,4.155c0.296,0.305,0.618,0.58,0.964,0.825V50.878
		L21.217,50.878z M17.358,26.251c1.433,0,2.762-0.453,3.858-1.228v2.065c-0.897,0.462-1.882,0.769-2.924,0.884
		c0.185,1.618,0.899,3.065,1.96,4.155c0.296,0.304,0.618,0.58,0.964,0.824v2.065c-0.829-0.428-1.582-0.988-2.232-1.656
		c-0.658-0.676-1.209-1.461-1.627-2.325V26.251z M17.358,46.896c-0.417,0.865-0.968,1.649-1.626,2.326
		c-1.559,1.602-3.712,2.592-6.09,2.592c-1.338,0-2.604-0.313-3.735-0.873l0.451-1.765c0.975,0.551,2.094,0.864,3.284,0.864
		c1.884,0,3.589-0.784,4.822-2.053c1.061-1.089,1.775-2.538,1.96-4.155c-2.006-0.223-3.805-1.152-5.156-2.541
		c-0.658-0.676-1.21-1.461-1.627-2.324c-0.307,0.634-0.685,1.225-1.125,1.763l1.68-6.571c1.662-0.138,3.157-0.888,4.268-2.03
		c1.061-1.09,1.775-2.537,1.96-4.155c-1.569-0.174-3.012-0.78-4.213-1.702l0.488-1.908c1.219,1.171,2.856,1.889,4.658,1.889v4.785
		c-0.417,0.864-0.968,1.649-1.626,2.326c-1.352,1.389-3.151,2.318-5.157,2.54c0.186,1.617,0.9,3.066,1.96,4.155
		c1.234,1.269,2.939,2.053,4.823,2.053V46.896z"/>
	<rect x="20.665" y="68.539" style="fill-rule:evenodd;clip-rule:evenodd;fill:#47C796;" width="63.849" height="47.892"/>
	<rect x="22.339" y="70.828" style="fill-rule:evenodd;clip-rule:evenodd;fill:#9FECFF;" width="59.934" height="43.314"/>
	<path style="fill-rule:evenodd;clip-rule:evenodd;fill:#DEF8FF;" d="M52.589,104.338l29.684-29.684v-3.827h-0.123l-29.561,29.56
		V104.338L52.589,104.338z M52.589,96.435v-7.901l17.707-17.706h7.901L52.589,96.435L52.589,96.435z M52.589,84.583v-3.951
		l9.805-9.804h3.951L52.589,84.583z M42.785,114.142l9.804-9.804v-3.951l-13.755,13.755H42.785L42.785,114.142z M52.589,80.631
		v3.951l-29.559,29.56h-0.691v-3.261L52.589,80.631L52.589,80.631z M52.589,88.534v7.901l-17.706,17.707H26.98L52.589,88.534z"/>
	<g>
		<path style="fill-rule:evenodd;clip-rule:evenodd;fill:#729116;" d="M136.191,86.926c1.593,1.97,5.022,6.035,6.681,10.396
			c4.952,13.021-18.008,12.962-13.371,0.028C131.071,92.972,134.702,88.896,136.191,86.926z"/>
		<path style="fill-rule:evenodd;clip-rule:evenodd;fill:#729116;" d="M143.255,90.801c1.064,2.563,3.42,7.886,3.696,13.129
			c0.825,15.651-24.73,10.275-14.906-3.062C135.371,96.352,140.886,92.651,143.255,90.801z"/>
		<path style="fill-rule:evenodd;clip-rule:evenodd;fill:#729116;" d="M129.016,90.455c2.381,1.911,7.456,5.831,10.627,10.422
			c9.465,13.706-16.396,18.047-15.043,2.598C125.059,98.244,127.927,92.958,129.016,90.455z"/>
		<path style="fill-rule:evenodd;clip-rule:evenodd;fill:#A8C455;" d="M129.375,91.762c0.988,0.856,3.092,2.613,4.426,4.655
			c3.983,6.096-6.513,7.855-6.104,1.056C127.835,95.171,128.955,92.859,129.375,91.762z"/>
		<path style="fill-rule:evenodd;clip-rule:evenodd;fill:#729116;" d="M150.449,99.476c-0.187,2.354-0.459,7.274-2.345,11.657
			c-5.627,13.085-23.69,2.858-10.564-5.904C141.984,102.262,147.832,100.463,150.449,99.476z"/>
		<path style="fill-rule:evenodd;clip-rule:evenodd;fill:#729116;" d="M121.977,99.476c2.639,1.044,8.2,3.142,12.521,6.226
			c12.899,9.204-5.838,18.62-10.869,5.537C121.925,106.809,122.106,101.791,121.977,99.476z"/>
		<path style="fill-rule:evenodd;clip-rule:evenodd;fill:#A8C455;" d="M142.848,92.1c0.406,1.12,1.309,3.444,1.364,5.75
			c0.164,6.88-10.207,4.695-6.05-1.242C139.569,94.598,141.86,92.93,142.848,92.1z"/>
		<path style="fill-rule:evenodd;clip-rule:evenodd;fill:#A8C455;" d="M148.948,100.993c0.162,1.117,0.568,3.448-0.025,5.593
			c-1.77,6.403-13.446,2.334-6.82-2.343C144.347,102.66,147.54,101.568,148.948,100.993z"/>
		<path style="fill-rule:evenodd;clip-rule:evenodd;fill:#A8C455;" d="M123.502,100.993c-0.13,1.1-0.47,3.393,0.185,5.502
			c1.954,6.299,13.514,2.296,6.754-2.305C128.151,102.632,124.927,101.558,123.502,100.993z"/>
		<path style="fill-rule:evenodd;clip-rule:evenodd;fill:#729116;" d="M136.191,97.999c1.593,1.935,5.022,5.93,6.681,10.214
			c4.952,12.792-18.008,12.733-13.371,0.028C131.071,103.938,134.702,99.933,136.191,97.999z"/>
		<path style="fill-rule:evenodd;clip-rule:evenodd;fill:#A8C455;" d="M136.195,99.993c0.983,1.026,3.102,3.144,4.127,5.417
			c3.06,6.783-11.125,6.752-8.261,0.015C133.031,103.142,135.274,101.019,136.195,99.993z"/>
		<path style="fill-rule:evenodd;clip-rule:evenodd;fill:#A8C455;" d="M136.202,88.009c0.661,0.689,2.086,2.113,2.775,3.642
			c2.057,4.561-7.479,4.54-5.555,0.01C134.075,90.126,135.583,88.699,136.202,88.009z"/>
	</g>
	<polygon style="fill-rule:evenodd;clip-rule:evenodd;fill:#4C6308;" points="12.813,129.473 15.221,129.473 13.934,92.239 	"/>
	<polygon style="fill-rule:evenodd;clip-rule:evenodd;fill:#DB86B3;" points="7.751,131.684 20.72,131.684 22.214,120.664 
		6.257,120.664 	"/>
	<g>
		<path style="fill-rule:evenodd;clip-rule:evenodd;fill:#729116;" d="M14.214,86.926c1.593,1.97,5.021,6.035,6.681,10.396
			c4.952,13.021-18.008,12.962-13.371,0.028C9.093,92.972,12.724,88.896,14.214,86.926z"/>
		<path style="fill-rule:evenodd;clip-rule:evenodd;fill:#729116;" d="M21.276,90.801c1.064,2.563,3.42,7.886,3.696,13.129
			c0.826,15.651-24.729,10.275-14.905-3.062C13.393,96.352,18.907,92.651,21.276,90.801z"/>
		<path style="fill-rule:evenodd;clip-rule:evenodd;fill:#729116;" d="M7.037,90.455c2.382,1.911,7.457,5.831,10.627,10.422
			c9.466,13.706-16.396,18.047-15.042,2.598C3.08,98.244,5.949,92.958,7.037,90.455z"/>
		<path style="fill-rule:evenodd;clip-rule:evenodd;fill:#A8C455;" d="M7.397,91.762c0.987,0.856,3.092,2.613,4.426,4.655
			c3.983,6.096-6.513,7.855-6.104,1.056C5.856,95.171,6.977,92.859,7.397,91.762z"/>
		<path style="fill-rule:evenodd;clip-rule:evenodd;fill:#729116;" d="M28.472,99.476c-0.187,2.354-0.459,7.274-2.345,11.657
			c-5.628,13.085-23.69,2.858-10.564-5.904C20.006,102.262,25.854,100.463,28.472,99.476z"/>
		<path style="fill-rule:evenodd;clip-rule:evenodd;fill:#729116;" d="M0,99.476c2.638,1.044,8.2,3.142,12.52,6.226
			c12.899,9.204-5.838,18.62-10.869,5.537C-0.053,106.809,0.128,101.791,0,99.476z"/>
		<path style="fill-rule:evenodd;clip-rule:evenodd;fill:#A8C455;" d="M20.87,92.1c0.405,1.12,1.309,3.444,1.363,5.75
			c0.165,6.88-10.206,4.695-6.05-1.242C17.591,94.598,19.882,92.93,20.87,92.1z"/>
		<path style="fill-rule:evenodd;clip-rule:evenodd;fill:#A8C455;" d="M26.971,100.993c0.161,1.117,0.567,3.448-0.025,5.593
			c-1.771,6.403-13.446,2.334-6.82-2.343C22.368,102.66,25.562,101.568,26.971,100.993z"/>
		<path style="fill-rule:evenodd;clip-rule:evenodd;fill:#A8C455;" d="M1.523,100.993c-0.13,1.1-0.469,3.393,0.186,5.502
			c1.954,6.299,13.513,2.296,6.753-2.305C6.173,102.632,2.948,101.558,1.523,100.993z"/>
		<path style="fill-rule:evenodd;clip-rule:evenodd;fill:#729116;" d="M14.214,97.999c1.593,1.935,5.021,5.93,6.681,10.214
			c4.952,12.792-18.008,12.733-13.371,0.028C9.093,103.938,12.724,99.933,14.214,97.999z"/>
		<path style="fill-rule:evenodd;clip-rule:evenodd;fill:#A8C455;" d="M14.218,99.993c0.983,1.026,3.102,3.144,4.127,5.417
			c3.06,6.783-11.125,6.752-8.261,0.015C11.054,103.142,13.297,101.019,14.218,99.993z"/>
		<path style="fill-rule:evenodd;clip-rule:evenodd;fill:#A8C455;" d="M14.225,88.009c0.661,0.689,2.086,2.113,2.774,3.642
			c2.057,4.561-7.48,4.54-5.554,0.01C12.098,90.126,13.605,88.699,14.225,88.009z"/>
	</g>
</g>
<g>
</g>
<g>
</g>
<g>
</g>
<g>
</g>
<g>
</g>
<g>
</g>
<g>
</g>
<g>
</g>
<g>
</g>
<g>
</g>
<g>
</g>
<g>
</g>
<g>
</g>
<g>
</g>
<g>
</g>
</svg>
