<?xml version="1.0" encoding="iso-8859-1"?>
<!-- Generator: Adobe Illustrator 19.0.0, SVG Export Plug-In . SVG Version: 6.00 Build 0)  -->
<svg version="1.1" id="Layer_1" xmlns="http://www.w3.org/2000/svg" xmlns:xlink="http://www.w3.org/1999/xlink" x="0px" y="0px"
	 viewBox="0 0 512 512" style="enable-background:new 0 0 512 512;" xml:space="preserve">
<path style="fill:#FFA22B;" d="M84.873,286.571c-53.76,0-89.917-55.563-68.408-104.833C56.761,89.435,148.847,24.922,256,24.922
	s199.239,64.512,239.535,156.816c21.509,49.269-14.648,104.833-68.408,104.833H84.873V286.571z"/>
<path style="fill:#FFCC85;" d="M188.384,286.571h135.233l22.03,148.383c2.556,19.131-19.734,52.122-48.151,52.122h-82.99
	c-28.419,0-50.708-32.993-48.151-52.122L188.384,286.571z"/>
<g>
	<path style="fill:#570029;" d="M504.885,177.657C461.673,78.676,363.981,14.721,256,14.721
		c-107.98,0-205.673,63.956-248.884,162.937c-11.51,26.364-8.941,56.524,6.869,80.679c15.753,24.068,42.253,38.436,70.887,38.436
		h91.684l-20.292,136.684c-0.007,0.049-0.014,0.099-0.021,0.148c-1.739,13.016,4.403,29.353,16.029,42.636
		c11.875,13.568,26.874,21.039,42.234,21.039h82.989c15.361,0,30.36-7.471,42.234-21.039c11.625-13.283,17.768-29.619,16.029-42.636
		c-0.007-0.049-0.014-0.099-0.021-0.148l-20.293-136.685h91.683c28.633,0,55.134-14.368,70.887-38.436
		C513.825,234.182,516.394,204.021,504.885,177.657z M335.543,436.365c0.76,5.942-2.823,16.905-11.166,26.438
		c-7.828,8.944-17.626,14.074-26.882,14.074h-82.989c-9.255,0-19.054-5.129-26.882-14.074c-8.343-9.533-11.926-20.496-11.166-26.437
		l20.725-139.595h117.637L335.543,436.365z M84.873,276.37c-21.727,0-41.846-10.918-53.817-29.207
		c-12.029-18.377-13.988-41.309-5.242-61.343C65.779,94.274,156.132,35.123,256,35.123s190.222,59.152,230.187,150.697
		c8.746,20.035,6.787,42.966-5.242,61.343c-11.972,18.289-32.09,29.207-53.818,29.207H84.873z"/>
	<path style="fill:#570029;" d="M222.41,239.428h-5.792c-5.634,0-10.201,4.568-10.201,10.201s4.567,10.201,10.201,10.201h5.792
		c5.634,0,10.201-4.568,10.201-10.201S228.044,239.428,222.41,239.428z"/>
	<path style="fill:#570029;" d="M178.396,239.428H79.942c-5.634,0-10.201,4.568-10.201,10.201s4.567,10.201,10.201,10.201h98.454
		c5.634,0,10.201-4.568,10.201-10.201S184.03,239.428,178.396,239.428z"/>
</g>
<g>
</g>
<g>
</g>
<g>
</g>
<g>
</g>
<g>
</g>
<g>
</g>
<g>
</g>
<g>
</g>
<g>
</g>
<g>
</g>
<g>
</g>
<g>
</g>
<g>
</g>
<g>
</g>
<g>
</g>
</svg>
