<?xml version="1.0" encoding="iso-8859-1"?>
<!-- Generator: Adobe Illustrator 19.0.0, SVG Export Plug-In . SVG Version: 6.00 Build 0)  -->
<svg version="1.1" id="Layer_1" xmlns="http://www.w3.org/2000/svg" xmlns:xlink="http://www.w3.org/1999/xlink" x="0px" y="0px"
	 viewBox="0 0 512 512" style="enable-background:new 0 0 512 512;" xml:space="preserve">
<path style="fill:#FF1D25;" d="M257.552,363.201c-26.893,27.329-63.312,44.347-104.146,44.347
	c-79.431,0-144.096-64.392-144.096-143.823v-23.971c0-44.129,35.887-80.262,80.015-80.262h127.843l40.385,16.342V363.201z"/>
<polygon style="fill:#39B54A;" points="209.972,143.977 209.972,159.853 177.613,167.843 185.405,199.804 177.315,207.794 
	153.295,191.813 129.299,207.794 121.296,199.804 129.238,167.843 97.228,159.853 97.228,143.977 153.245,143.977 "/>
<path style="fill:#C1272D;" d="M185.417,375.587c-79.43,0-144.044-64.392-144.044-143.822v-23.971
	c0-13.846,3.476-26.864,9.672-38.218c-24.834,13.553-41.737,39.896-41.737,70.179v23.971c0,79.431,64.665,143.823,144.096,143.823
	c40.834,0,80.356-17.018,104.146-44.347v-6.952C233.762,368.504,211.634,375.587,185.417,375.587z"/>
<path style="fill:#FF1D25;" d="M504.76,263.725c0,79.431-64.342,143.823-143.774,143.823s-143.774-64.392-143.774-143.823v-23.971
	c0-44.129,35.75-79.902,79.879-79.902c26.18,0,49.336,12.649,63.91,32.106c14.574-19.457,37.709-32.106,63.889-32.106
	c44.128,0,79.87,35.773,79.87,79.902v23.971H504.76z"/>
<path style="fill:#C1272D;" d="M273.067,263.725v-23.971c0-34.307,21.678-63.478,52.037-74.802c-8.723-3.289-18.139-5.1-28.02-5.1
	c-44.128,0-79.871,35.773-79.871,79.902v23.971c0,79.431,64.369,143.823,143.801,143.823c9.574,0,18.888-0.982,27.939-2.767
	C322.913,391.761,273.067,333.582,273.067,263.725z"/>
<path style="fill:#FF4A51;" d="M345.009,367.222v-39.576c0-8.826-7.155-15.981-15.981-15.981l0,0
	c-8.826,0-15.981-7.155-15.981-15.981v-15.981c0-8.826,7.155-15.981,15.981-15.981l0,0c8.826,0,15.981-7.155,15.981-15.981v-7.99
	c0-26.967-22.265-48.733-49.416-47.919c-26.238,0.787-46.467,23.678-46.467,49.929c0,0-16.817,101.724,79.94,136.911
	C336.831,381.498,345.009,375.483,345.009,367.222z"/>
<path style="fill:#FF1D25;" d="M266.227,241.765c0-25.244,18.725-47.322,43.496-49.682c-2.017-0.195-4.057-0.309-6.139-0.247
	c-26.238,0.787-46.466,23.679-46.466,49.929c0,0-16.817,101.724,79.94,136.911c2.934,1.067,5.924,0.865,8.513-0.238
	C249.501,343.044,266.227,241.765,266.227,241.765z"/>
<path style="fill:#FF4A51;" d="M376.97,367.222v-39.576c0-8.826,7.155-15.981,15.981-15.981l0,0c8.826,0,15.981-7.155,15.981-15.981
	v-15.981c0-8.826-7.155-15.981-15.981-15.981l0,0c-8.826,0-15.981-7.155-15.981-15.981v-7.99c0-26.967,22.265-48.733,49.416-47.919
	c26.238,0.787,46.467,23.678,46.467,49.929c0,0,16.817,101.724-79.94,136.911C385.148,381.498,376.97,375.483,376.97,367.222z"/>
<path d="M333.005,387.124c-2.223,0-4.453-0.382-6.589-1.158c-53.132-19.323-73.43-57.952-81.103-86.957
	c-7.61-28.768-4.579-53.46-3.941-57.852c0.317-30.642,24.414-56.188,53.989-57.075c15.23-0.457,29.592,5.119,40.493,15.698
	c10.906,10.583,16.913,24.781,16.913,39.974v7.99c0,13.089-10.649,23.738-23.738,23.738c-4.534,0-8.223,3.688-8.223,8.223v15.981
	c0,4.534,3.688,8.223,8.223,8.223c13.089,0,23.738,10.649,23.738,23.738v39.576c0,6.499-3.187,12.611-8.525,16.35
	C340.897,385.915,336.961,387.124,333.005,387.124z M297.075,199.571c-0.416,0-0.832,0.006-1.248,0.019
	c-21.473,0.644-38.942,19.565-38.942,42.174v0.637l-0.104,0.628c-0.037,0.232-3.848,24.593,3.673,52.539
	c9.878,36.703,33.855,62.211,71.265,75.815c1.646,0.599,2.976-0.069,3.621-0.521c0.574-0.402,1.91-1.563,1.91-3.642v-39.576
	c0-4.534-3.688-8.223-8.223-8.223c-13.089,0-23.738-10.649-23.738-23.738v-15.981c0-13.089,10.649-23.738,23.738-23.738
	c4.534,0,8.223-3.688,8.223-8.223v-7.99c0-10.962-4.333-21.204-12.202-28.84C317.483,203.573,307.59,199.571,297.075,199.571z"/>
<path d="M388.975,387.124c-3.957,0-7.892-1.209-11.237-3.553c-5.338-3.739-8.525-9.85-8.525-16.35v-39.576
	c0-13.089,10.649-23.738,23.738-23.738c4.535,0,8.223-3.688,8.223-8.223v-15.981c0-4.534-3.688-8.223-8.223-8.223
	c-13.089,0-23.738-10.649-23.738-23.738v-7.99c0-15.193,6.006-29.391,16.913-39.974c10.903-10.579,25.268-16.157,40.493-15.698
	c29.575,0.887,53.672,26.433,53.989,57.075c0.638,4.392,3.669,29.085-3.941,57.852c-7.673,29.005-27.971,67.635-81.103,86.957
	C393.427,386.743,391.197,387.124,388.975,387.124z M424.904,199.571c-10.516,0-20.409,4.001-27.975,11.344
	c-7.868,7.636-12.202,17.879-12.202,28.84v7.99c0,4.534,3.688,8.223,8.223,8.223c13.09,0,23.738,10.649,23.738,23.738v15.981
	c0,13.089-10.649,23.738-23.738,23.738c-4.534,0-8.223,3.688-8.223,8.223v39.576c0,2.079,1.336,3.239,1.911,3.642
	c0.644,0.452,1.975,1.12,3.621,0.521c37.598-13.673,61.623-39.359,71.407-76.344c7.38-27.898,3.572-51.773,3.532-52.011
	l-0.104-0.628v-0.637c0-22.611-17.469-41.53-38.942-42.174C425.736,199.577,425.319,199.571,424.904,199.571z"/>
<g>
	
		<rect x="298.97" y="212.947" transform="matrix(-0.6754 -0.7374 0.7374 -0.6754 351.5355 596.1342)" style="fill:#FFFFFF;" width="15.98" height="15.515"/>
	
		<rect x="279.111" y="241.302" transform="matrix(-0.9238 -0.3829 0.3829 -0.9238 456.9583 589.0692)" style="fill:#FFFFFF;" width="15.981" height="15.515"/>
	
		<rect x="273.406" y="275.193" transform="matrix(-0.0434 -0.9991 0.9991 -0.0434 10.4498 576.3724)" style="fill:#FFFFFF;" width="15.516" height="15.981"/>
	
		<rect x="282.298" y="308.532" transform="matrix(-0.4616 -0.8871 0.8871 -0.4616 143.1597 719.9334)" style="fill:#FFFFFF;" width="15.515" height="15.981"/>
	
		<rect x="304.52" y="335.007" transform="matrix(-0.7932 -0.6089 0.6089 -0.7932 351.1259 805.225)" style="fill:#FFFFFF;" width="15.515" height="15.98"/>
	
		<rect x="401.558" y="335.294" transform="matrix(-0.6086 -0.7935 0.7935 -0.6086 386.5887 876.7993)" style="fill:#FFFFFF;" width="15.981" height="15.515"/>
	
		<rect x="423.817" y="308.777" transform="matrix(-0.8869 -0.4619 0.4619 -0.8869 668.5765 796.7341)" style="fill:#FFFFFF;" width="15.98" height="15.515"/>
	
		<rect x="432.754" y="275.44" transform="matrix(-0.999 -0.0439 0.0439 -0.999 868.6295 585.4704)" style="fill:#FFFFFF;" width="15.98" height="15.515"/>
	
		<rect x="426.996" y="241.104" transform="matrix(-0.3825 -0.924 0.924 -0.3825 370.8861 746.0656)" style="fill:#FFFFFF;" width="15.516" height="15.981"/>
	
		<rect x="407.183" y="212.756" transform="matrix(-0.7372 -0.6757 0.6757 -0.7372 571.6737 663.8487)" style="fill:#FFFFFF;" width="15.515" height="15.981"/>
</g>
<path d="M424.438,152.096c-20.481,0-39.748,6.997-55.177,19.66v-27.777h-15.515v29.393c-15.823-13.539-36.251-21.275-57.43-21.275
	c-14.791,0-28.734,3.638-40.997,10.031c-11.943-5.866-24.747-8.841-38.152-8.841h-0.989v-16.549h-54.82V96.397h-15.515v40.339
	H88.954v16.559C39.871,153.49,0,192.196,0,239.754v23.971c0,83.746,68.395,151.878,152.462,151.878
	c39.001,0,76.575-14.698,104.392-40.573c27.119,24.984,63.348,40.275,103.097,40.275c83.84,0,152.048-67.999,152.048-151.581
	v-23.971C512,191.419,472.72,152.096,424.438,152.096z M200.663,152.252v1.034v0.528l-33.27,8.416l9.019,35.243l-0.308,0.311
	l-22.906-15.3l-22.958,15.322l-0.41-0.411l8.482-35.231l-32.809-8.126v-0.752h-1.034v-1.034h96.194V152.252z M55.794,360.072
	c-25.973-25.83-40.278-60.047-40.278-96.347v-23.971c0-39.124,33.11-70.953,73.809-70.953h11.248l19.05,4.719l-6.908,28.692
	l15.548,15.569l24.934-16.639l24.942,16.66l15.483-15.668l-7.34-28.678l18.398-4.655h12.488c7.794,0,15.342,1.229,22.571,3.655
	c-19.44,16.094-31.835,40.286-31.835,67.299v23.971c0,38.391,14.398,73.486,38.082,100.223
	c-24.933,23.051-58.574,36.141-93.523,36.141C116.074,400.089,81.743,385.877,55.794,360.072z M496.485,263.725
	c0,75.027-61.249,136.066-136.533,136.066s-136.533-61.039-136.533-136.066v-23.971c0-39.78,32.702-72.144,72.897-72.144
	c22.773,0,44.489,10.841,58.089,28.999l6.209,8.29l6.209-8.29c13.803-18.429,34.803-28.999,57.615-28.999
	c39.727,0,72.047,32.364,72.047,72.144L496.485,263.725L496.485,263.725z"/>
<g>
	<path style="fill:#FFFFFF;" d="M59.153,332.297c-16.701-22.228-25.529-48.683-25.529-76.611H49.14
		c0,24.824,7.751,47.76,22.417,67.278L59.153,332.297z"/>
	<path style="fill:#FFFFFF;" d="M93.143,363.679c-6.634-4.193-12.918-9.029-18.678-14.373l10.552-11.374
		c5.063,4.698,10.585,8.947,16.416,12.632L93.143,363.679z"/>
</g>
<g>
</g>
<g>
</g>
<g>
</g>
<g>
</g>
<g>
</g>
<g>
</g>
<g>
</g>
<g>
</g>
<g>
</g>
<g>
</g>
<g>
</g>
<g>
</g>
<g>
</g>
<g>
</g>
<g>
</g>
</svg>
